<?xml version="1.0" encoding="utf-8"?>
<!-- Generator: Adobe Illustrator 24.0.0, SVG Export Plug-In . SVG Version: 6.00 Build 0)  -->
<svg version="1.1" id="Livello_1" xmlns="http://www.w3.org/2000/svg" xmlns:xlink="http://www.w3.org/1999/xlink" x="0px" y="0px"
	 viewBox="0 0 150 131" style="enable-background:new 0 0 150 131;" xml:space="preserve">
<style type="text/css">
	.st0{fill:none;stroke:#1592D2;stroke-width:5;stroke-linecap:round;stroke-linejoin:round;}
	.st1{fill:none;stroke:#1592D2;stroke-width:5;stroke-linecap:round;stroke-dasharray:0,8;}
</style>
<g transform="translate(-1188.5 -6142.5)">
	<g transform="translate(769.565 5722.073)">
		<path class="st0" d="M423.4,422.9h55c1.1,0,2,0.9,2,2v41c0,1.1-0.9,2-2,2h-55c-1.1,0-2-0.9-2-2v-41
			C421.4,423.8,422.3,422.9,423.4,422.9z"/>
		<line class="st0" x1="446.4" y1="478.9" x2="446.4" y2="467.9"/>
		<line class="st0" x1="455.4" y1="478.9" x2="455.4" y2="467.9"/>
		<line class="st0" x1="461.4" y1="478.9" x2="440.4" y2="478.9"/>
		<line class="st0" x1="480.4" y1="457.9" x2="421.4" y2="457.9"/>
		<path class="st0" d="M508.4,503.9h56c1.1,0,2,0.9,2,2v41c0,1.1-0.9,2-2,2h-56c-1.1,0-2-0.9-2-2v-41
			C506.4,504.8,507.3,503.9,508.4,503.9z"/>
		<circle class="st0" cx="450.9" cy="534.4" r="10.5"/>
		<ellipse class="st0" cx="536.4" cy="447" rx="11" ry="10.9"/>
		<line class="st1" x1="536.3" y1="465.3" x2="536.3" y2="498.5"/>
		<line class="st1" x1="451.5" y1="485.4" x2="451.5" y2="518.5"/>
		<line class="st1" x1="499.1" y1="534.9" x2="461.9" y2="534.9"/>
		<line class="st1" x1="518.2" y1="448.2" x2="481" y2="448.2"/>
	</g>
</g>
</svg>
