<?xml version="1.0" encoding="utf-8"?>
<!-- Generator: Adobe Illustrator 23.1.1, SVG Export Plug-In . SVG Version: 6.00 Build 0)  -->
<svg version="1.1" id="Livello_1" xmlns="http://www.w3.org/2000/svg" xmlns:xlink="http://www.w3.org/1999/xlink" x="0px" y="0px"
	 viewBox="0 0 137 137" style="enable-background:new 0 0 137 137;" xml:space="preserve">
<style type="text/css">
	.st0{enable-background:new    ;}
	.st1{fill:#1592D2;}
	.st2{fill:none;stroke:#1592D2;stroke-width:5;stroke-linecap:round;stroke-miterlimit:10;}
	.st3{fill:none;stroke:#1592D2;stroke-width:5;stroke-linecap:round;}
	.st4{fill:none;stroke:#1592D2;stroke-width:5;stroke-linecap:round;stroke-linejoin:round;}
</style>
<g id="Group_1792" transform="translate(-1133.144 -3016.5)">
	<g class="st0">
		<path class="st1" d="M1181.4,3149.1c-1.3,0-2.5-0.2-3.4-0.7c-0.9-0.5-1.7-1.1-2.4-1.8l2.2-2.2c1,1.2,2.3,1.7,3.9,1.7
			c0.8,0,1.4-0.2,1.8-0.5s0.6-0.8,0.6-1.3c0-0.4-0.1-0.8-0.4-1.1c-0.2-0.3-0.7-0.5-1.4-0.6l-1.5-0.2c-1.6-0.2-2.8-0.7-3.6-1.5
			c-0.8-0.8-1.1-1.8-1.1-3.1c0-0.7,0.1-1.3,0.4-1.9c0.3-0.6,0.6-1.1,1.1-1.5c0.5-0.4,1.1-0.7,1.8-1s1.5-0.3,2.4-0.3
			c1.2,0,2.2,0.2,3.1,0.6s1.6,0.9,2.3,1.6l-2.2,2.2c-0.4-0.4-0.8-0.8-1.3-1c-0.5-0.3-1.2-0.4-2-0.4c-0.7,0-1.3,0.1-1.7,0.4
			c-0.4,0.3-0.5,0.6-0.5,1.1c0,0.5,0.1,0.9,0.4,1.1c0.3,0.2,0.8,0.4,1.4,0.5l1.5,0.2c1.6,0.2,2.8,0.7,3.5,1.5s1.1,1.8,1.1,3.1
			c0,0.7-0.1,1.4-0.4,2c-0.3,0.6-0.6,1.1-1.2,1.6c-0.5,0.4-1.1,0.8-1.9,1C1183.2,3149,1182.4,3149.1,1181.4,3149.1z"/>
		<path class="st1" d="M1196.1,3136.5v12.4h-3.3v-12.4h-4.2v-3h11.7v3H1196.1z"/>
		<path class="st1" d="M1208.1,3149.1c-1,0-1.9-0.2-2.8-0.5c-0.8-0.3-1.5-0.8-2.1-1.5c-0.6-0.7-1-1.5-1.4-2.5
			c-0.3-1-0.5-2.1-0.5-3.4s0.2-2.5,0.5-3.4c0.3-1,0.8-1.8,1.4-2.5c0.6-0.7,1.3-1.2,2.1-1.5c0.8-0.3,1.8-0.5,2.8-0.5
			c1,0,1.9,0.2,2.8,0.5c0.8,0.3,1.5,0.8,2.1,1.5c0.6,0.7,1,1.5,1.4,2.5s0.5,2.1,0.5,3.4s-0.2,2.5-0.5,3.4c-0.3,1-0.8,1.8-1.4,2.5
			c-0.6,0.7-1.3,1.2-2.1,1.5C1210.1,3149,1209.1,3149.1,1208.1,3149.1z M1208.1,3146.2c1,0,1.8-0.3,2.4-1c0.6-0.7,0.8-1.6,0.8-2.8
			v-2.3c0-1.2-0.3-2.2-0.8-2.8c-0.6-0.7-1.4-1-2.4-1c-1,0-1.8,0.3-2.4,1s-0.8,1.6-0.8,2.8v2.3c0,1.2,0.3,2.2,0.8,2.8
			S1207.1,3146.2,1208.1,3146.2z"/>
		<path class="st1" d="M1217.7,3148.9v-15.4h7.3c0.7,0,1.4,0.1,1.9,0.4c0.6,0.2,1.1,0.6,1.5,1c0.4,0.4,0.7,0.9,0.9,1.6
			c0.2,0.6,0.3,1.3,0.3,2c0,0.7-0.1,1.4-0.3,2c-0.2,0.6-0.5,1.1-0.9,1.5c-0.4,0.4-0.9,0.8-1.5,1c-0.6,0.2-1.2,0.4-1.9,0.4h-3.9v5.5
			H1217.7z M1221,3140.4h3.5c0.5,0,0.9-0.1,1.2-0.4s0.4-0.6,0.4-1.1v-1c0-0.5-0.1-0.9-0.4-1.1c-0.3-0.3-0.7-0.4-1.2-0.4h-3.5V3140.4
			z"/>
	</g>
	<path id="Path_1021" class="st2" d="M1245.7,3133.8c26.5-24.3,28.2-65.5,3.9-91.9c-24.3-26.5-65.5-28.2-91.9-3.9
		c-26.5,24.3-28.2,65.5-3.9,91.9c1.2,1.3,2.5,2.6,3.9,3.9"/>
	<path id="Path_1029" class="st3" d="M1136.6,3132.1l22.5,3.5l3.6-20.4"/>
	<g id="Group_1525" transform="translate(1174.127 3043.21)">
		<path id="Path_1513" class="st4" d="M40.2,78.9c4.8-2.6,11.1-8.8,14.9-17c2.4-5.4,8.7-14.5,9.5-16.3c0,0,6.6-5.9,1.9-7.7
			c0,0-5.8-1.8-10.5,6.3c0,0-4.7,8.7-9.1,7.3c-4.7-1.4-1.4-8.6-2.5-13.7c0,0,0.9-11,1.5-19c1.3-5.8,0.3-9.1-2-9.5
			c-1.8-0.3-4.1,0.4-4.6,5.7c0,0-1.4,12-1.6,13.4c-0.2,1.8-1,5.3-1.3,6.6c0,0-0.7,2.3-2.2,2c0,0-1.1,0.4-1.3-3.2
			c-0.1-10.9,0-10.9,0-11.4c-0.2-4.4,0.1-14-0.3-14.5c0,0,0.3-6-3.4-6c-2.7,0-3.7,2.3-3.7,6.9c0,0-0.1,6.3-0.2,7.4
			c-0.3,2.9-0.4,5.8-0.4,8.7c0,0-0.5,9.2-0.5,11.1c0,0-2.3,1.8-2.6-2.5c0,0-0.6-5.6-0.9-8c0,0-0.5-6.3-0.9-6.9
			c0,0-0.4-13.5-4.2-13.2c-3.7,0.3-3.2,2.8-3.4,9.2c0,0,0.7,11.6,1,13.3c0,0,0.8,11,0.5,11.4c0,0-2,1.8-2.9-2.1
			c0,0-2.9-10.4-3.9-15.5c-0.4-2-1-6.3-3.7-6.4c-3.4,0.1-2.8,3.9-1.9,10.4c0.9,5.5,1.3,6.8,1.9,10.3c0,0,1,8.5,1,9.6
			c0,0-1.6,30.4,9.5,34.2"/>
	</g>
</g>
</svg>
