?xml version="1.0" encoding="utf-8"?>
<!-- Generator: Adobe Illustrator 23.1.1, SVG Export Plug-In . SVG Version: 6.00 Build 0)  -->
<svg version="1.1" id="Livello_1" xmlns="http://www.w3.org/2000/svg" xmlns:xlink="http://www.w3.org/1999/xlink" x="0px" y="0px"
	 viewBox="0 0 153 128" style="enable-background:new 0 0 153 128;" xml:space="preserve">
<style type="text/css">
	.st0{fill:none;stroke:#1592D2;stroke-width:5;stroke-linecap:round;stroke-linejoin:round;}
</style>
<g id="Group_1922" transform="translate(-1412.864 -676.022)">
	<path id="Path_3720" class="st0" d="M1476.2,784.5v-21.3 M1502.7,784.5v-21.3 M1489.4,722.3c5.6,0,10.1,4.5,10,10.1
		c0,5.6-4.5,10.1-10.1,10c-5.6,0-10-4.5-10-10.1C1479.3,726.8,1483.8,722.3,1489.4,722.3z M1480.9,748L1480.9,748
		c-3.8-0.1-10,1.4-12.8,4.2c-0.4,0.5-5.2,33.8-5.2,33.8 M1515.6,786c0,0-5-33.4-5.2-33.8c-2.7-2.7-8.7-4.3-12.8-4.2 M1424,801.3
		c-9.7,0-9.8-4.8-6.6-9.6c4.2-6,58.8-99.9,63.9-107.4c4.6-6.9,10.7-7.5,14.9-1.4c2.3,3.5,62.7,105,65,108.4c1,1.4,1.6,3,1.9,4.7
		c0.4,3.8-1,5-5.5,5.3C1555,801.4,1425.5,801.3,1424,801.3L1424,801.3z"/>
</g>
</svg>
