<?xml version="1.0" encoding="utf-8"?>
<!-- Generator: Adobe Illustrator 23.1.1, SVG Export Plug-In . SVG Version: 6.00 Build 0)  -->
<svg version="1.1" id="Livello_1" xmlns="http://www.w3.org/2000/svg" xmlns:xlink="http://www.w3.org/1999/xlink" x="0px" y="0px"
	 viewBox="0 0 110 25.8" style="enable-background:new 0 0 110 25.8;" xml:space="preserve">
<g>
	<rect x="34.5" y="6.1" width="2" height="13.5"/>
	<polygon points="48.2,16.3 41.2,6.1 39.5,6.1 39.5,19.7 41.5,19.7 41.5,9.5 48.4,19.7 50.2,19.7 50.2,6.1 48.2,6.1 	"/>
	<polygon points="63.3,6.1 61,6.1 57.8,11 54.5,6.1 52.2,6.1 56.6,12.5 51.7,19.7 54,19.7 57.7,14.1 61.4,19.7 63.8,19.7 58.8,12.5 
			"/>
	<path d="M70.4,6.1h-5.1v13.5h2v-5.3h3.1c1.5,0,2.5-0.2,3.5-0.9c0.7-0.6,1.1-1.5,1.2-2.4c0-0.1,0-1.4,0-1.4c0-1-0.4-1.9-1.1-2.6
		C72.9,6.4,71.9,6.1,70.4,6.1z M73,10.4c0,0.4,0,0.8-0.1,1.1s-0.2,0.5-0.5,0.7c-0.2,0.2-0.5,0.3-0.8,0.3c-0.4,0.1-0.8,0.1-1.2,0.1
		h-3.1V7.9h3.1c0.4,0,0.8,0,1.2,0.1c0.3,0,0.6,0.2,0.8,0.3c0.2,0.2,0.4,0.4,0.5,0.7C73,9.4,73,9.8,73,10.1V10.4z"/>
	<polygon points="86.1,7.9 86.4,6.1 77.2,6.1 77.2,19.7 86.1,19.7 86.4,17.9 79.1,17.9 79.1,13.6 85.6,13.6 86,11.8 79.2,11.8 
		79.2,7.9 	"/>
	<path d="M93.9,17.9c-0.6,0-1.2,0-1.8-0.2c-0.4-0.1-0.8-0.3-1.1-0.6c-0.3-0.4-0.5-0.8-0.6-1.3c-0.1-0.7-0.2-1.5-0.2-2.2v-1.4
		c0-0.7,0-1.5,0.1-2.2c0.2-0.5,0.4-1,0.7-1.3c0.2-0.4,0.6-0.6,1-0.7c0.6-0.1,1.2-0.2,1.8-0.2h0.8c0.3,0,0.6,0,0.8,0h0.8
		c0.3,0,0.5,0,0.7,0L97.3,6c-0.8,0-1.4,0-2,0h-1.5c-0.9,0-1.8,0.1-2.7,0.3c-0.7,0.2-1.3,0.5-1.7,1c-0.5,0.5-0.8,1.2-1,1.9
		c-0.2,1-0.3,1.9-0.3,2.9v1.4c0,1,0.1,1.9,0.3,2.8c0.1,0.7,0.5,1.4,0.9,1.9c0.5,0.5,1.1,0.9,1.7,1.1c0.9,0.2,1.8,0.4,2.7,0.3H95
		c0.6,0,1.2,0,1.9,0l0.4-1.8c-0.8,0-1.5,0-2,0h-1.4V17.9z"/>
	<polygon points="98.7,6.1 98.4,7.9 103.1,7.9 103.1,19.7 105.1,19.7 105.1,7.9 109.6,7.9 110,6.1 	"/>
	<path d="M15.4,0.5c-0.5-0.3-1-0.5-1.6-0.5s-1.1,0.2-1.6,0.5c0.5,0.3,1,0.4,1.6,0.5C14.4,1,14.9,0.8,15.4,0.5z"/>
	<path d="M13.8,1L13.8,1L13.8,1z"/>
	<path d="M13.7,5.4c1.9,0,3.8-0.5,5.5-1.5C18.5,3.3,17.6,3,16.6,3c-0.4,0-0.7,0-1.1,0.1c-0.6,0.2-1.2,0.2-1.8,0.2S12.6,3.2,12,3.1
		C11.6,3,11.3,3,10.9,3C10,3.1,9.1,3.4,8.3,4C10,4.9,11.8,5.4,13.7,5.4L13.7,5.4z"/>
	<path d="M8.3,21.9c0.7,0.6,1.6,0.9,2.6,0.9l0,0c0.4,0,0.7,0,1.1-0.1c0.6-0.2,1.2-0.2,1.8-0.2s1.2,0.1,1.7,0.2
		c0.4,0.1,0.7,0.1,1.1,0.1c0.9,0,1.9-0.3,2.6-0.9c-1.6-1-3.5-1.5-5.4-1.5C11.9,20.4,10,20.9,8.3,21.9z"/>
	<path d="M25.1,11.4c-1.4-0.7-2.9-1.3-4.3-1.7c1.1-0.5,2.1-1,3.1-1.7c-0.7-0.6-1.6-0.9-2.5-0.9c-0.6,0-1.2,0.1-1.7,0.4
		c-1.8,0.8-3.8,1.2-5.7,1.2h-0.1h-0.1c-2,0-3.9-0.4-5.7-1.2C7.4,7.3,6.9,7.2,6.3,7.2c-0.9,0-1.8,0.3-2.5,0.9c1,0.7,2,1.2,3,1.7
		c-1.5,0.4-2.9,1-4.3,1.7c-0.9,0.4-1.7,0.9-2.4,1.5l0,0c0.8,0.5,1.6,1,2.4,1.5c1.4,0.7,2.9,1.3,4.3,1.7c-1.1,0.5-2.1,1-3.1,1.7
		c0.7,0.6,1.6,0.9,2.5,0.9l0,0c0.6,0,1.2-0.1,1.7-0.4c1.8-0.8,3.8-1.3,5.9-1.3c2,0,4,0.4,5.8,1.2c0.5,0.2,1.1,0.4,1.7,0.4
		c0.9,0,1.8-0.3,2.5-0.9c-1-0.7-2-1.2-3-1.7c1.5-0.4,3-1,4.4-1.7c0.9-0.4,1.7-0.9,2.4-1.5l0,0C26.7,12.3,25.9,11.9,25.1,11.4z
		 M13.9,14.6c-0.9,0-1.8,0-2.7-0.1c-1.9-0.2-3.8-0.7-5.6-1.4C5.4,13,5.3,13,5.1,12.9c0.2-0.1,0.3-0.1,0.5-0.2c2.5-1,5.3-1.5,8-1.5
		h0.1l0,0c0,0,0,0,0.1,0c0.8,0,1.7,0.1,2.5,0.1c1.9,0.2,3.8,0.7,5.6,1.4c0.2,0.1,0.3,0.1,0.5,0.2c-0.2,0.1-0.3,0.1-0.5,0.2
		C19.4,14.1,16.6,14.6,13.9,14.6z"/>
	<path d="M12.1,25.3c0.5,0.3,1,0.5,1.6,0.5l0,0c0.6,0,1.1-0.2,1.6-0.5c-0.5-0.3-1-0.4-1.6-0.5C13.2,24.8,12.6,25,12.1,25.3z"/>
</g>
</svg>
