<?xml version="1.0" encoding="utf-8"?>
<!-- Generator: Adobe Illustrator 23.1.1, SVG Export Plug-In . SVG Version: 6.00 Build 0)  -->
<svg version="1.1" id="Livello_1" xmlns="http://www.w3.org/2000/svg" xmlns:xlink="http://www.w3.org/1999/xlink" x="0px" y="0px"
	 viewBox="0 0 134.8 95.2" style="enable-background:new 0 0 134.8 95.2;" xml:space="preserve">
<style type="text/css">
	.st0{fill:none;stroke:#1592D2;stroke-width:5;stroke-linecap:round;stroke-linejoin:round;stroke-miterlimit:10;}
</style>
<g id="Group_877" transform="translate(-916.254 -2058.322)">
	<path id="Path_860" class="st0" d="M1042.2,2107.1c0-11.4-9.3-20.6-20.7-20.6c-2.1,0-4.3,0.3-6.3,1"/>
	<path id="Path_861" class="st0" d="M1042.2,2107.1c0-11.4-9.3-20.6-20.7-20.6c-2.1,0-4.3,0.3-6.3,1"/>
	<path id="Path_862" class="st0" d="M926.7,2107.1c0-11.4,9.3-20.6,20.7-20.6c2.1,0,4.3,0.3,6.3,1"/>
	<path id="Path_863" class="st0" d="M1015.1,2087.4c-2.2-15.3-15.3-26.6-30.7-26.6"/>
	<path id="Path_864" class="st0" d="M984.4,2060.8c15.4,0,28.5,11.3,30.7,26.6"/>
	<path id="Path_865" class="st0" d="M953.7,2087.4c2.2-15.3,15.3-26.6,30.7-26.6"/>
	<line id="Line_519" class="st0" x1="918.8" y1="2121.7" x2="959.3" y2="2121.7"/>
	<line id="Line_520" class="st0" x1="971.3" y1="2121.7" x2="1048.5" y2="2121.7"/>
	<line id="Line_521" class="st0" x1="927.6" y1="2136.4" x2="972.5" y2="2136.4"/>
	<line id="Line_522" class="st0" x1="984.5" y1="2136.4" x2="1041.1" y2="2136.4"/>
	<line id="Line_523" class="st0" x1="1048.5" y1="2151.1" x2="996.3" y2="2151.1"/>
	<line id="Line_524" class="st0" x1="984.2" y1="2151.1" x2="918.8" y2="2151.1"/>
</g>
</svg>
