<?xml version="1.0" encoding="utf-8"?>
<!-- Generator: Adobe Illustrator 23.1.1, SVG Export Plug-In . SVG Version: 6.00 Build 0)  -->
<svg version="1.1" id="Livello_1" xmlns="http://www.w3.org/2000/svg" xmlns:xlink="http://www.w3.org/1999/xlink" x="0px" y="0px"
	 viewBox="0 0 128.5 128.8" style="enable-background:new 0 0 128.5 128.8;" xml:space="preserve">
<style type="text/css">
	.st0{fill:none;stroke:#1592D2;stroke-width:5;stroke-dasharray:80,5;}
	.st1{fill:none;stroke:#1592D2;stroke-width:5;stroke-linejoin:round;}
</style>
<g id="Group_1953" transform="translate(-1187.732 -3017.723)">
	<line id="Line_771" class="st0" x1="1189.5" y1="3114.5" x2="1285.5" y2="3019.5"/>
	<path id="Path_3617" class="st1" d="M1238.6,3115.8h48.3c5,0,9.1-4.1,9.1-9.1v-49.1c0-5-4.1-9.1-9.1-9.1h-48.3
		c-5,0-9.1,4.1-9.1,9.1v49.1C1229.5,3111.7,1233.6,3115.8,1238.6,3115.8z M1209.4,3144h78.2c0,0,14.4,0.7,14.4-18.3v-55.5
		 M1316.2,3144H1238c0,0-14.4,0.7-14.4-18.3v-55.5"/>
	<line id="Line_772" class="st0" x1="1189.5" y1="3144.5" x2="1314.5" y2="3019.5"/>
</g>
</svg>
