<?xml version="1.0" encoding="utf-8"?>
<!-- Generator: Adobe Illustrator 23.1.1, SVG Export Plug-In . SVG Version: 6.00 Build 0)  -->
<svg version="1.1" id="Livello_1" xmlns="http://www.w3.org/2000/svg" xmlns:xlink="http://www.w3.org/1999/xlink" x="0px" y="0px"
	 viewBox="0 0 135.1 131.8" style="enable-background:new 0 0 135.1 131.8;" xml:space="preserve">
<style type="text/css">
	.st0{fill:none;stroke:#1592D2;stroke-width:5;stroke-linecap:round;stroke-miterlimit:10;}
	.st1{fill:none;stroke:#1592D2;stroke-width:5;stroke-miterlimit:10;}
</style>
<g id="Group_1531" transform="translate(-656.5 -3023.5)">
	<path id="Path_1021" class="st0" d="M768.1,3139c26.5-24.3,28.2-65.5,3.9-91.9c-24.3-26.5-65.5-28.2-91.9-3.9
		c-26.5,24.3-28.2,65.5-3.9,91.9c1.2,1.3,2.5,2.6,3.9,3.9"/>
	<g id="Group_900" transform="translate(697 3059.973)">
		<g id="Group_907" transform="translate(0 0)">
			<g id="Group_900-2" transform="translate(25.831 5.134)">
				<path id="Path_1024_1_" class="st1" d="M6,0.1C6.4,0,6.9,0,7.3,0h12.3c4,0.2,7,3.5,6.8,7.5c-0.2,3.7-3.1,6.7-6.8,6.8H7.3
					c-0.4,0-0.9,0-1.3-0.1"/>
			</g>
			<g id="Group_903" transform="translate(21.133 51.994)">
				<line id="Rectangle_434_3_" class="st1" x1="0" y1="8.1" x2="0" y2="2.5"/>
				<line id="Rectangle_434_2_" class="st1" x1="9.7" y1="2.6" x2="9.7" y2="8.2"/>
			</g>
			<g id="Group_904" transform="translate(4.56 60.309)">
				<path id="Path_1026" class="st1" d="M31.3,0l11.8,32.5H0L11.8,0H31.3z"/>
			</g>
			<g id="Group_905" transform="translate(0.27 5.134)">
				<path id="Path_1027_3_" class="st1" d="M5.3,19.4C11.5,14.1,24.7,3.2,26,1.8c2.4-2.4,6.2-2.4,8.6,0c0,0,0,0,0,0
					c2.4,2.4,2.4,6.3,0,8.8c-1.2,1.2-9.9,11.9-15.5,18.6"/>
				<path id="Path_1027_2_" class="st1" d="M7.5,36.7c-1.8-0.2-3.5-1-4.9-2.4c0,0,0,0-0.1-0.1C0.9,32.6,0,30.4,0,28.1"/>
			</g>
			<g id="Group_906" transform="translate(0 24.392)">
				<path id="Path_1028" class="st1" d="M2,2c-2.6,2.7-2.6,6.9,0,9.6l19.2,19.2c2.7,2.6,7,2.5,9.6-0.1c2.6-2.6,2.6-6.8,0-9.5L11.6,2
					C8.9-0.7,4.6-0.7,2,2z"/>
			</g>
		</g>
		<line id="Line_534" class="st0" x1="52.9" y1="12.3" x2="65.4" y2="12.3"/>
	</g>
</g>
</svg>
